<svg width="385" height="269" viewBox="0 0 385 269" fill="none" xmlns="http://www.w3.org/2000/svg">
<g id="undraw_responsive_6c8s 1" clip-path="url(#clip0)">
<g id="poda">
<g id="Group" opacity="0.7">
<path id="Vector" opacity="0.7" d="M75.4876 195.642H45.229L45.6469 191.28C54.1979 181.436 59.7272 155.211 59.7272 155.211C59.6045 155.233 59.483 155.265 59.3636 155.308C54.3483 156.605 50.7792 159.246 48.2841 162.424L49.3456 150.817C65.1436 146.455 71.4085 119.663 71.4085 119.663C61.3279 122.529 55.0421 126.966 51.1386 131.178L52.6933 114.127C63.3758 118.827 74.426 93.8611 74.426 93.8611L74.0081 93.7486L74.217 93.5771L73.8994 93.7218C62.0927 90.4584 55.7819 99.1125 53.734 102.708L53.8886 101.036C53.5766 102.108 53.2729 103.158 52.9775 104.187V104.23C52.1416 107.134 51.3768 110.003 50.683 112.836C50.0784 115.254 49.5128 117.648 48.9862 120.016V119.984C48.9862 119.984 48.4972 104.734 35.955 100.72C35.955 100.72 37.2715 133.981 47.21 128.536C46.2905 133.359 45.5382 138 44.8863 142.506C44.4711 145.439 44.1089 148.297 43.7996 151.08L43.7411 151.166L43.7996 151.101L43.7746 151.321C43.4959 153.847 43.2591 156.308 43.0641 158.705C43.2563 154.086 42.6002 140.743 30.3379 128.204C30.3379 128.204 14.0384 164.932 41.8311 172.144C41.8938 172.214 41.9565 172.284 42.015 172.348L41.9732 172.182L42.224 172.252L42.3369 170.365C42.0018 178.238 42.0339 186.129 42.433 193.997C42.4622 194.533 42.4915 195.068 42.5207 195.577H11.9153C0.238123 226.545 18.4016 243.515 18.4016 243.515H68.554C88.0298 212.039 75.4876 195.642 75.4876 195.642Z" fill="url(#paint0_linear)"/>
</g>
<path id="Vector_2" opacity="0.6" d="M43.4786 206.95C43.4786 206.95 35.123 162.829 53.5934 105.95" stroke="#535461" stroke-width="3" stroke-miterlimit="10"/>
<path id="Vector_3" d="M51.8474 108.255C51.8474 108.255 57.957 94.5357 72.5934 98.7569C72.5934 98.7569 60.4954 124.749 49.5934 116.238L51.8474 108.255Z" fill="#4DB6AC"/>
<path id="Vector_4" d="M48.5934 123.253C48.5934 123.253 48.1058 108.764 35.5934 104.95C35.5934 104.95 36.8878 136.554 46.8114 131.377L48.5934 123.253Z" fill="#4DB6AC"/>
<path id="Vector_5" d="M44.6426 144.544C44.6426 144.544 46.8185 129.451 69.5934 122.95C69.5934 122.95 62.3298 154.165 43.5934 152.914L44.6426 144.544Z" fill="#4DB6AC"/>
<path id="Vector_6" d="M42.4364 160.904C42.4364 160.904 44.9119 145.359 30.2019 130.95C30.2019 130.95 14.2311 165.461 41.7513 171.95L42.4364 160.904Z" fill="#4DB6AC"/>
<path id="Vector_7" d="M41.6352 182.807C41.6352 182.807 39.9114 160.32 58.5934 155.95C58.5934 155.95 51.7702 187.352 41.6097 192.95L41.6352 182.807Z" fill="#4DB6AC"/>
<path id="Vector_8" opacity="0.3" d="M50.5934 116.95C50.5934 116.95 66.0748 101.597 72.5934 98.9502" stroke="#535461" stroke-miterlimit="10"/>
<path id="Vector_9" opacity="0.3" d="M43.5934 152.95C43.5934 152.95 62.2809 126.223 69.5934 122.95" stroke="#535461" stroke-miterlimit="10"/>
<path id="Vector_10" opacity="0.3" d="M35.5934 104.95C35.5934 104.95 47.3931 125.534 46.5503 130.95" stroke="#535461" stroke-miterlimit="10"/>
<path id="Vector_11" opacity="0.3" d="M30.5934 130.95C30.5934 130.95 36.7045 167.158 41.5934 171.95" stroke="#535461" stroke-miterlimit="10"/>
<path id="Vector_12" opacity="0.3" d="M41.5934 192.95C41.5934 192.95 51.7934 157.038 58.5934 155.95" stroke="#535461" stroke-miterlimit="10"/>
</g>
<g id="Group_2" opacity="0.7">
<path id="Vector_13" opacity="0.7" d="M308.608 0H96.9738C95.16 0.00851285 93.423 0.94014 92.1448 2.59008C90.8666 4.24001 90.1517 6.47321 90.1572 8.79876V195.556C90.1517 197.881 90.8666 200.114 92.1448 201.764C93.423 203.414 95.16 204.346 96.9738 204.354H169.762V236.591H166.443C165.988 236.594 165.537 236.711 165.117 236.936C164.696 237.162 164.315 237.491 163.994 237.905C163.673 238.32 163.419 238.811 163.246 239.352C163.073 239.892 162.985 240.471 162.987 241.055V247.523H169.762V251.349H235.821V247.523H242.595V241.055C242.597 240.471 242.509 239.892 242.336 239.352C242.163 238.811 241.909 238.32 241.588 237.905C241.267 237.491 240.886 237.162 240.465 236.936C240.045 236.711 239.594 236.594 239.139 236.591H236.017V236.313H235.804V204.354H308.608C310.422 204.346 312.159 203.414 313.437 201.764C314.715 200.114 315.43 197.881 315.425 195.556V8.79876C315.43 6.47321 314.715 4.24001 313.437 2.59008C312.159 0.94014 310.422 0.00851285 308.608 0Z" fill="url(#paint1_linear)"/>
</g>
<path id="Vector_14" d="M236 199H170V248H236V199Z" fill="#BDBDBD"/>
<g id="Group_3" opacity="0.1">
<path id="Vector_15" opacity="0.1" d="M171.684 203.626H234.446C235.202 199.408 235.808 196.659 235.808 196.659H170.192C170.192 196.659 170.865 199.398 171.684 203.626Z" fill="black"/>
</g>
<path id="Vector_16" d="M98.7184 2H307.282C309.063 2 310.772 2.90571 312.032 4.51789C313.292 6.13006 314 8.31664 314 10.5966V175H92V10.5966C92 8.31664 92.7078 6.13006 93.9678 4.51789C95.2277 2.90571 96.9366 2 98.7184 2Z" fill="#535461"/>
<path id="Vector_17" d="M307.282 202H98.7184C96.9366 202 95.2277 201.084 93.9678 199.454C92.7078 197.823 92 195.612 92 193.306V175H314V193.306C314 195.612 313.292 197.823 312.032 199.454C310.772 201.084 309.063 202 307.282 202Z" fill="#BDBDBD"/>
<path id="Vector_18" d="M203 193C205.209 193 207 190.985 207 188.5C207 186.015 205.209 184 203 184C200.791 184 199 186.015 199 188.5C199 190.985 200.791 193 203 193Z" fill="#535461"/>
<path id="Vector_19" d="M167.39 234H238.61C239.509 234 240.372 234.43 241.007 235.196C241.643 235.963 242 237.002 242 238.085V244H164V238.085C164 237.549 164.088 237.017 164.258 236.522C164.428 236.026 164.678 235.576 164.993 235.196C165.308 234.817 165.681 234.516 166.093 234.311C166.504 234.106 166.945 234 167.39 234Z" fill="#BDBDBD"/>
<g id="Group_4" opacity="0.5">
<path id="Vector_20" opacity="0.5" d="M270.079 38.1101H135.921C134.883 38.1101 134.041 39.1897 134.041 40.5215V136.311C134.041 137.643 134.883 138.723 135.921 138.723H270.079C271.117 138.723 271.959 137.643 271.959 136.311V40.5215C271.959 39.1897 271.117 38.1101 270.079 38.1101Z" fill="url(#paint2_linear)"/>
</g>
<path id="Vector_21" d="M268.125 39H137.875C136.84 39 136 40.0733 136 41.3973V134.603C136 135.927 136.84 137 137.875 137H268.125C269.16 137 270 135.927 270 134.603V41.3973C270 40.0733 269.16 39 268.125 39Z" fill="white"/>
<g id="box1" opacity="0.5">
<path id="Vector_22" opacity="0.5" d="M186.174 53.0016H175.124C174.085 53.0016 173.243 54.0812 173.243 55.4129V67.6841C173.243 69.0158 174.085 70.0954 175.124 70.0954H186.174C187.213 70.0954 188.055 69.0158 188.055 67.6841V55.4129C188.055 54.0812 187.213 53.0016 186.174 53.0016Z" fill="#6C63FF"/>
</g>
<path id="Vector_23" d="M231.26 53H192.74C192.331 53 192 53.4477 192 54C192 54.5523 192.331 55 192.74 55H231.26C231.669 55 232 54.5523 232 54C232 53.4477 231.669 53 231.26 53Z" fill="#E0E0E0"/>
<path id="Vector_24" d="M225.243 59H192.757C192.339 59 192 59.4477 192 60C192 60.5523 192.339 61 192.757 61H225.243C225.661 61 226 60.5523 226 60C226 59.4477 225.661 59 225.243 59Z" fill="#E0E0E0"/>
<g id="box2" opacity="0.5">
<path id="Vector_25" opacity="0.5" d="M186.174 79.5908H175.124C174.085 79.5908 173.243 80.6704 173.243 82.0021V94.2733C173.243 95.605 174.085 96.6846 175.124 96.6846H186.174C187.213 96.6846 188.055 95.605 188.055 94.2733V82.0021C188.055 80.6704 187.213 79.5908 186.174 79.5908Z" fill="#6C63FF"/>
</g>
<path id="Vector_26" d="M231.26 80H192.74C192.331 80 192 80.2239 192 80.5C192 80.7761 192.331 81 192.74 81H231.26C231.669 81 232 80.7761 232 80.5C232 80.2239 231.669 80 231.26 80Z" fill="#E0E0E0"/>
<path id="Vector_27" d="M231.26 85H192.74C192.331 85 192 85.4477 192 86C192 86.5523 192.331 87 192.74 87H231.26C231.669 87 232 86.5523 232 86C232 85.4477 231.669 85 231.26 85Z" fill="#E0E0E0"/>
<g id="box3" opacity="0.5">
<path id="Vector_28" opacity="0.5" d="M186.174 106.18H175.124C174.085 106.18 173.243 107.26 173.243 108.591V120.862C173.243 122.194 174.085 123.274 175.124 123.274H186.174C187.213 123.274 188.055 122.194 188.055 120.862V108.591C188.055 107.26 187.213 106.18 186.174 106.18Z" fill="#6C63FF"/>
</g>
<path id="Vector_29" d="M231.26 106H192.74C192.331 106 192 106.448 192 107C192 107.552 192.331 108 192.74 108H231.26C231.669 108 232 107.552 232 107C232 106.448 231.669 106 231.26 106Z" fill="#E0E0E0"/>
<path id="Vector_30" d="M232.323 112H192.677C192.303 112 192 112.402 192 112.898V113.102C192 113.598 192.303 114 192.677 114H232.323C232.697 114 233 113.598 233 113.102V112.898C233 112.402 232.697 112 232.323 112Z" fill="#E0E0E0"/>
<path id="Vector_31" d="M203 23V11" stroke="#6C63FF" stroke-width="2" stroke-miterlimit="10"/>
<path id="Vector_32" d="M203 42V27" stroke="#6C63FF" stroke-width="2" stroke-miterlimit="10"/>
<path id="Vector_33" d="M203 44C204.105 44 205 43.1046 205 42C205 40.8954 204.105 40 203 40C201.895 40 201 40.8954 201 42C201 43.1046 201.895 44 203 44Z" fill="#6C63FF"/>
<path id="Vector_34" d="M203 27C204.105 27 205 26.1046 205 25C205 23.8954 204.105 23 203 23C201.895 23 201 23.8954 201 25C201 26.1046 201.895 27 203 27Z" stroke="white" stroke-miterlimit="10"/>
<path id="Vector_35" d="M203 23V11" stroke="#6C63FF" stroke-width="2" stroke-miterlimit="10"/>
<path id="Vector_36" d="M203 42V27" stroke="#6C63FF" stroke-width="2" stroke-miterlimit="10"/>
<path id="Vector_37" d="M203 44C204.105 44 205 43.1046 205 42C205 40.8954 204.105 40 203 40C201.895 40 201 40.8954 201 42C201 43.1046 201.895 44 203 44Z" fill="#6C63FF"/>
<path id="Vector_38" d="M203 27C204.105 27 205 26.1046 205 25C205 23.8954 204.105 23 203 23C201.895 23 201 23.8954 201 25C201 26.1046 201.895 27 203 27Z" stroke="white" stroke-miterlimit="10"/>
<path id="Vector_39" d="M203 150V166" stroke="#6C63FF" stroke-width="2" stroke-miterlimit="10"/>
<path id="Vector_40" d="M203 135V150" stroke="#6C63FF" stroke-width="2" stroke-miterlimit="10"/>
<path id="Vector_41" d="M203 137C204.105 137 205 135.881 205 134.5C205 133.119 204.105 132 203 132C201.895 132 201 133.119 201 134.5C201 135.881 201.895 137 203 137Z" fill="#6C63FF"/>
<path id="Vector_42" d="M128 90H115" stroke="#6C63FF" stroke-width="2" stroke-miterlimit="10"/>
<path id="Vector_43" d="M139 90H127" stroke="#6C63FF" stroke-width="2" stroke-miterlimit="10"/>
<path id="Vector_44" d="M139.5 92C140.328 92 141 91.1046 141 90C141 88.8954 140.328 88 139.5 88C138.672 88 138 88.8954 138 90C138 91.1046 138.672 92 139.5 92Z" fill="#6C63FF"/>
<g id="Group_5" opacity="0.1">
<path id="Vector_45" opacity="0.1" d="M235.808 233.366H170.61V234.973H235.808V233.366Z" fill="black"/>
</g>
<path id="Vector_46" d="M11.7799 195H73.1603C73.1603 195 85.2694 214.707 66.4795 244H18.0433C18.0433 244 0.505993 223.761 11.7799 195Z" fill="#6C63FF"/>
<g id="Group_6" opacity="0.1">
<path id="Vector_47" opacity="0.1" d="M73.4398 195.052H12.0031C11.8652 195.411 11.7315 195.77 11.5852 196.124H71.3501C71.3501 196.124 83.1735 215.473 65.3318 244.351H66.7528C85.5599 214.879 73.4398 195.052 73.4398 195.052Z" fill="black"/>
</g>
<path id="Vector_48" d="M406 244H0V262H406V244Z" fill="#E0E0E0"/>
<path id="Vector_49" d="M389 262H17V269H389V262Z" fill="#E0E0E0"/>
<path id="Vector_50" opacity="0.1" d="M389 262H17V264H389V262Z" fill="black"/>
<path id="Vector_51" d="M288 90H291" stroke="#6C63FF" stroke-width="2" stroke-miterlimit="10"/>
<path id="Vector_52" d="M266 90H285" stroke="#6C63FF" stroke-width="2" stroke-miterlimit="10"/>
<path id="Vector_53" d="M266.5 92C267.328 92 268 91.1046 268 90C268 88.8954 267.328 88 266.5 88C265.672 88 265 88.8954 265 90C265 91.1046 265.672 92 266.5 92Z" fill="#6C63FF"/>
<path id="Vector_54" d="M286.5 92C287.328 92 288 91.1046 288 90C288 88.8954 287.328 88 286.5 88C285.672 88 285 88.8954 285 90C285 91.1046 285.672 92 286.5 92Z" stroke="white" stroke-miterlimit="10"/>
<g id="Group_7" opacity="0.7">
<path id="Vector_55" opacity="0.7" d="M381.459 238.392L381.501 238.311C381.587 238.14 381.672 237.961 381.755 237.776L381.801 237.674C381.882 237.499 381.959 237.32 382.031 237.138L382.069 237.047C382.153 236.838 382.232 236.629 382.303 236.409C382.454 235.971 382.585 235.522 382.696 235.064L382.738 234.887C382.775 234.721 382.813 234.555 382.846 234.389L382.888 234.153C382.916 234.003 382.941 233.851 382.963 233.698C382.963 233.612 382.988 233.526 383.001 233.441C383.013 233.355 383.039 233.14 383.055 232.985C383.072 232.83 383.055 232.808 383.08 232.722C383.105 232.637 383.105 232.396 383.114 232.23C383.114 232.155 383.114 232.074 383.114 231.999C383.114 231.758 383.114 231.511 383.114 231.27V187.014H377.325V165.322H370.22V187.014H365.322V155.859H358.217V187.014H355.547V151.406H348.442V187.014H342.173V231.276C342.173 238.499 346.858 244.351 352.621 244.351H372.682C374.322 244.359 375.941 243.876 377.41 242.94C378.878 242.004 380.156 240.641 381.141 238.96C381.244 238.771 381.35 238.581 381.459 238.392Z" fill="url(#paint3_linear)"/>
</g>
<path id="Vector_56" d="M356 172H349V226H356V172Z" fill="#535461"/>
<path id="Vector_57" d="M356 154H349V172H356V154Z" fill="#3AD29F"/>
<path id="Vector_58" d="M365 176H358V230H365V176Z" fill="#535461"/>
<path id="Vector_59" d="M365 159H358V176H365V159Z" fill="#4D8AF0"/>
<path id="Vector_60" d="M376 185H370V239H376V185Z" fill="#535461"/>
<path id="Vector_61" d="M376 168H370V185H376V168Z" fill="#F55F44"/>
<path id="Vector_62" d="M343 189H382V231.451C382 234.78 380.95 237.971 379.082 240.325C377.214 242.678 374.68 244 372.038 244H352.962C350.32 244 347.786 242.678 345.918 240.325C344.05 237.971 343 234.78 343 231.451V189Z" fill="#6C63FF"/>
<g id="Group_8" opacity="0.1">
<path id="Vector_63" opacity="0.1" d="M343.427 188.622V190.765H380.205V233.366C380.208 236.181 379.472 238.916 378.115 241.13C379.288 239.954 380.237 238.45 380.888 236.733C381.54 235.016 381.878 233.131 381.877 231.222V188.622H343.427Z" fill="black"/>
</g>
</g>
<defs>
<linearGradient id="paint0_linear" x1="9441" y1="77608.3" x2="21661" y2="77608.3" gradientUnits="userSpaceOnUse">
<stop stop-color="#808080" stop-opacity="0.25"/>
<stop offset="0.54" stop-color="#808080" stop-opacity="0.12"/>
<stop offset="1" stop-color="#808080" stop-opacity="0.1"/>
</linearGradient>
<linearGradient id="paint1_linear" x1="202.791" y1="251.344" x2="202.791" y2="0" gradientUnits="userSpaceOnUse">
<stop stop-color="#808080" stop-opacity="0.25"/>
<stop offset="0.54" stop-color="#808080" stop-opacity="0.12"/>
<stop offset="1" stop-color="#808080" stop-opacity="0.1"/>
</linearGradient>
<linearGradient id="paint2_linear" x1="67124" y1="26084.7" x2="67124" y2="7193.67" gradientUnits="userSpaceOnUse">
<stop stop-color="#808080" stop-opacity="0.25"/>
<stop offset="0.54" stop-color="#808080" stop-opacity="0.12"/>
<stop offset="1" stop-color="#808080" stop-opacity="0.1"/>
</linearGradient>
<linearGradient id="paint3_linear" x1="38540.1" y1="52969.9" x2="42552.3" y2="52969.9" gradientUnits="userSpaceOnUse">
<stop stop-color="#808080" stop-opacity="0.25"/>
<stop offset="0.54" stop-color="#808080" stop-opacity="0.12"/>
<stop offset="1" stop-color="#808080" stop-opacity="0.1"/>
</linearGradient>
<clipPath id="clip0">
<rect width="385" height="269" fill="white"/>
</clipPath>
</defs>
</svg>
